<?xml version="1.0" encoding="UTF-8"?>
<!DOCTYPE svg PUBLIC "-//W3C//DTD SVG 1.1//EN" "http://www.w3.org/Graphics/SVG/1.1/DTD/svg11.dtd">
<!-- Creator: CorelDRAW X6 -->
<svg xmlns="http://www.w3.org/2000/svg" xml:space="preserve" width="158.157mm" height="29.6332mm" version="1.1" style="shape-rendering:geometricPrecision; text-rendering:geometricPrecision; image-rendering:optimizeQuality; fill-rule:evenodd; clip-rule:evenodd"
viewBox="0 0 15816 2963"
 xmlns:xlink="http://www.w3.org/1999/xlink">
 <defs>
  <style type="text/css">
   <![CDATA[
    .fil3 {fill:#FEFEFE;fill-rule:nonzero}
    .fil2 {fill:url(#id0)}
    .fil4 {fill:url(#id1)}
    .fil1 {fill:url(#id2);fill-rule:nonzero}
    .fil0 {fill:url(#id3);fill-rule:nonzero}
   ]]>
  </style>
  <linearGradient id="id0" gradientUnits="userSpaceOnUse" x1="1368.95" y1="360.7" x2="1158.74" y2="3014.18">
   <stop offset="0" style="stop-color:#F7AA47"/>
   <stop offset="1" style="stop-color:#EA5E20"/>
  </linearGradient>
  <linearGradient id="id1" gradientUnits="userSpaceOnUse" x1="14239.6" y1="1624.15" x2="13294.9" y2="-226.85">
   <stop offset="0" style="stop-color:#EF7F1A"/>
   <stop offset="1" style="stop-color:#F08143"/>
  </linearGradient>
  <linearGradient id="id2" gradientUnits="userSpaceOnUse" x1="12770.3" y1="2632.18" x2="12879.1" y2="809.2">
   <stop offset="0" style="stop-color:#082157"/>
   <stop offset="1" style="stop-color:#7E71B1"/>
  </linearGradient>
  <linearGradient id="id3" gradientUnits="userSpaceOnUse" x1="6126.65" y1="2058.27" x2="6271.57" y2="809.8">
   <stop offset="0" style="stop-color:#F67929"/>
   <stop offset="1" style="stop-color:#F69C21"/>
  </linearGradient>
 </defs>
 <g id="Layer_x0020_1">
  <metadata id="CorelCorpID_0Corel-Layer"/>
  <path class="fil0" d="M2902 886l448 0 0 209c77,-85 162,-148 256,-190 94,-42 196,-63 307,-63 112,0 213,27 303,82 90,55 163,136 218,241 71,-105 159,-186 262,-241 104,-55 218,-82 340,-82 127,0 239,30 336,89 97,59 166,136 209,231 42,95 63,250 63,464l0 1047 -448 0 0 -903c0,-202 -25,-339 -76,-410 -51,-71 -128,-107 -229,-107 -78,0 -147,22 -209,66 -62,43 -108,104 -137,181 -30,77 -45,200 -45,371l0 803 -448 0 0 -862c0,-159 -12,-275 -36,-346 -24,-72 -59,-125 -107,-160 -48,-35 -105,-52 -173,-52 -75,0 -144,22 -205,66 -62,44 -107,106 -138,186 -30,80 -45,205 -45,376l0 792 -448 0 0 -1787zm4489 0l448 0 0 1787 -448 0 0 -190c-87,83 -176,142 -264,179 -88,36 -184,55 -287,55 -232,0 -431,-89 -600,-268 -169,-178 -253,-400 -253,-666 0,-275 82,-501 245,-677 163,-176 361,-264 594,-264 108,0 208,20 302,60 94,40 181,100 261,180l0 -196zm-472 367c-139,0 -255,49 -346,147 -92,98 -138,223 -138,376 0,154 47,281 140,381 94,99 209,149 345,149 141,0 258,-49 351,-147 93,-98 140,-226 140,-385 0,-155 -47,-281 -140,-377 -93,-96 -210,-144 -352,-144zm1548 -1100c79,0 146,29 202,85 57,57 85,125 85,206 0,80 -28,148 -84,204 -56,56 -122,84 -200,84 -80,0 -148,-29 -204,-86 -57,-57 -85,-127 -85,-209 0,-79 28,-145 84,-201 56,-56 123,-84 202,-84zm-225 734l448 0 0 1787 -448 0 0 -1787zm806 -690l448 0 0 2477 -448 0 0 -2477z"/>
  <path class="fil1" d="M11672 1191l-373 205c-70,-73 -139,-124 -208,-153 -68,-29 -149,-43 -241,-43 -168,0 -303,50 -407,149 -104,100 -155,227 -155,383 0,151 50,275 149,371 100,96 231,144 393,144 200,0 356,-68 468,-205l353 242c-192,249 -462,374 -812,374 -315,0 -561,-93 -739,-279 -178,-186 -267,-403 -267,-652 0,-173 43,-331 130,-477 87,-145 208,-260 363,-343 155,-83 328,-125 520,-125 178,0 337,35 478,106 141,71 257,171 347,301zm1245 -407c169,0 328,42 476,126 149,84 265,198 348,342 84,145 125,300 125,467 0,168 -42,325 -126,472 -84,146 -199,261 -343,343 -145,82 -305,124 -479,124 -257,0 -476,-91 -657,-273 -182,-182 -273,-403 -273,-663 0,-279 103,-511 308,-697 180,-162 386,-242 620,-242zm7 421c-140,0 -256,48 -348,145 -93,97 -139,220 -139,371 0,155 46,280 137,376 91,96 208,144 348,144 140,0 257,-49 351,-146 93,-97 140,-222 140,-375 0,-153 -46,-277 -137,-373 -91,-95 -209,-143 -351,-143zm1307 -377l448 0 0 184c102,-85 194,-144 277,-178 82,-33 167,-50 253,-50 177,0 328,62 451,185 104,105 156,261 156,466l0 1179 -444 0 0 -781c0,-213 -10,-354 -29,-424 -19,-70 -53,-123 -100,-160 -48,-36 -107,-55 -176,-55 -91,0 -169,30 -234,91 -65,61 -110,145 -135,251 -13,56 -20,177 -20,362l0 716 -448 0 0 -1787z"/>
  <circle class="fil2" cx="1264" cy="1687" r="1267"/>
  <path class="fil3" d="M2195 1847l-1439 0c21,127 76,229 166,305 90,75 205,113 344,113 167,0 310,-59 430,-177l376 178c-94,133 -206,232 -337,297 -131,64 -287,96 -467,96 -279,0 -507,-88 -683,-265 -176,-176 -264,-397 -264,-662 0,-272 88,-498 264,-677 176,-180 395,-270 661,-270 281,0 510,90 686,269 176,179 264,416 264,710l-2 85zm-446 -350c-30,-98 -88,-177 -175,-238 -87,-61 -188,-91 -304,-91 -125,0 -234,34 -329,103 -59,43 -114,118 -164,227l972 0z"/>
  <path class="fil4" d="M13114 667c26,31 451,74 451,74 49,-10 331,-375 394,-402 -8,69 -275,426 -279,483 0,5 158,403 195,420 27,-22 232,-795 266,-930 14,-55 90,-273 73,-312 -39,-5 -487,281 -553,321 -79,48 -531,306 -549,345z"/>
 </g>
</svg>
